<svg xmlns="http://www.w3.org/2000/svg" viewBox="0 0 135 40"><defs><style>.a{fill:#a6a6a6;}.b{fill:#fff;}.c{fill:none;stroke:#fff;stroke-miterlimit:10;stroke-width:3px;}.d{fill:#020202;}</style></defs><rect width="135" height="40" rx="5"/><path class="a" d="M130,.8A4.2,4.2,0,0,1,134.2,5V35a4.2,4.2,0,0,1-4.2,4.2H5A4.2,4.2,0,0,1,.8,35h0V5A4.2,4.2,0,0,1,5,.8H130m0-.8H5A5,5,0,0,0,0,5V35a5,5,0,0,0,5,5H130a5,5,0,0,0,5-5V5A5,5,0,0,0,130,0Z" transform="translate(0)"/><path class="b" d="M49.44,14.57l-1.07-2.73H44.94l-1.06,2.73h-1L46.26,6h.84l3.37,8.6ZM48.06,11l-1-2.66c-.13-.33-.26-.75-.4-1.23a8.69,8.69,0,0,1-.37,1.23l-1,2.66Z" transform="translate(0)"/><path class="b" d="M52.9,14.57,50.47,8.15h1L52.89,12a14.54,14.54,0,0,1,.55,1.74h.05a11.9,11.9,0,0,1,.41-1.29c.23-.65.74-2.07,1.54-4.25h1L54,14.57Z" transform="translate(0)"/><path class="b" d="M61.46,14.57l-.19-.92h-.05a2.6,2.6,0,0,1-1,.82,3,3,0,0,1-1.19.21,2.14,2.14,0,0,1-1.5-.49,1.79,1.79,0,0,1-.54-1.4c0-1.3,1-2,3.11-2l1.09,0v-.4a1.66,1.66,0,0,0-.32-1.12,1.35,1.35,0,0,0-1-.36,4.33,4.33,0,0,0-1.82.49l-.3-.74a4.32,4.32,0,0,1,1-.4A4.39,4.39,0,0,1,59.92,8a2.46,2.46,0,0,1,1.71.51,2.11,2.11,0,0,1,.55,1.63v4.39Zm-2.2-.69a2,2,0,0,0,1.43-.5A1.85,1.85,0,0,0,61.21,12v-.58l-1,0a3.6,3.6,0,0,0-1.67.36,1.08,1.08,0,0,0-.51,1,1,1,0,0,0,.32.81A1.33,1.33,0,0,0,59.26,13.88Z" transform="translate(0)"/><path class="b" d="M64.1,6.4a.62.62,0,0,1,.17-.48.54.54,0,0,1,.41-.16.55.55,0,0,1,.4.16.64.64,0,0,1,.17.48.65.65,0,0,1-.17.49.56.56,0,0,1-.4.17.55.55,0,0,1-.41-.17A.65.65,0,0,1,64.1,6.4Zm1.06,8.17h-1V8.15h1Z" transform="translate(0)"/><path class="b" d="M68.19,14.57h-1V5.45h1Z" transform="translate(0)"/><path class="b" d="M74.2,14.57,74,13.65H74a2.6,2.6,0,0,1-1,.82,2.92,2.92,0,0,1-1.19.21,2.13,2.13,0,0,1-1.49-.49,1.77,1.77,0,0,1-.55-1.4c0-1.3,1-2,3.11-2l1.09,0v-.4a1.61,1.61,0,0,0-.32-1.12,1.34,1.34,0,0,0-1-.36,4.36,4.36,0,0,0-1.82.49l-.3-.74A4.8,4.8,0,0,1,72.67,8a2.45,2.45,0,0,1,1.7.51,2.11,2.11,0,0,1,.55,1.63v4.39ZM72,13.88a1.92,1.92,0,0,0,1.42-.5A1.81,1.81,0,0,0,74,12v-.58l-1,0a3.6,3.6,0,0,0-1.67.36,1.07,1.07,0,0,0-.52,1,1,1,0,0,0,.32.81A1.36,1.36,0,0,0,72,13.88Z" transform="translate(0)"/><path class="b" d="M79.92,8a2.39,2.39,0,0,1,2,.86,3.8,3.8,0,0,1,.7,2.45,3.85,3.85,0,0,1-.7,2.46,2.39,2.39,0,0,1-2,.87,2.72,2.72,0,0,1-1.15-.23,2.06,2.06,0,0,1-.87-.71h-.07l-.2.83h-.7V5.45h1V7.66c0,.5,0,.95-.05,1.34h.05A2.31,2.31,0,0,1,79.92,8Zm-.14.81a1.68,1.68,0,0,0-1.44.58,3.23,3.23,0,0,0-.44,1.92,3.24,3.24,0,0,0,.45,1.94,1.71,1.71,0,0,0,1.45.58,1.49,1.49,0,0,0,1.33-.65,3.33,3.33,0,0,0,.44-1.88,3.17,3.17,0,0,0-.44-1.87A1.54,1.54,0,0,0,79.78,8.85Z" transform="translate(0)"/><path class="b" d="M85.25,14.57h-1V5.45h1Z" transform="translate(0)"/><path class="b" d="M90,14.68a3,3,0,0,1-2.25-.86A3.35,3.35,0,0,1,87,11.41a3.72,3.72,0,0,1,.76-2.47A2.55,2.55,0,0,1,89.78,8a2.42,2.42,0,0,1,1.91.79,3,3,0,0,1,.7,2.1v.61H88a2.55,2.55,0,0,0,.57,1.72,2,2,0,0,0,1.52.58,5.18,5.18,0,0,0,2.06-.43v.87a5.57,5.57,0,0,1-1,.32A5.93,5.93,0,0,1,90,14.68Zm-.26-5.84a1.59,1.59,0,0,0-1.24.51A2.31,2.31,0,0,0,88,10.74h3.36a2.17,2.17,0,0,0-.41-1.41A1.48,1.48,0,0,0,89.77,8.84Z" transform="translate(0)"/><path class="b" d="M102.71,11.35a3.52,3.52,0,0,1-.79,2.45,2.79,2.79,0,0,1-2.19.88,2.91,2.91,0,0,1-1.53-.4,2.71,2.71,0,0,1-1-1.16,4.05,4.05,0,0,1-.36-1.77,3.57,3.57,0,0,1,.78-2.45A2.8,2.8,0,0,1,99.77,8a2.75,2.75,0,0,1,2.15.89A3.59,3.59,0,0,1,102.71,11.35Zm-4.89,0a3.05,3.05,0,0,0,.49,1.88,2,2,0,0,0,2.9,0,3.05,3.05,0,0,0,.49-1.88,3,3,0,0,0-.49-1.86,1.76,1.76,0,0,0-1.47-.64,1.72,1.72,0,0,0-1.44.63A3.05,3.05,0,0,0,97.82,11.35Z" transform="translate(0)"/><path class="b" d="M108.81,14.57V10.41a1.67,1.67,0,0,0-.36-1.17,1.45,1.45,0,0,0-1.12-.39,1.84,1.84,0,0,0-1.47.55,2.7,2.7,0,0,0-.47,1.8v3.37h-1V8.15h.8l.15.87h0a2,2,0,0,1,.84-.73,2.64,2.64,0,0,1,1.2-.26,2.44,2.44,0,0,1,1.75.56,2.38,2.38,0,0,1,.58,1.79v4.19Z" transform="translate(0)"/><path class="b" d="M52.28,22.56a3.7,3.7,0,0,1-1.23,3,5.22,5.22,0,0,1-3.48,1h-1.1v4.32H43.89V18.78h3.88a5.19,5.19,0,0,1,3.36.95A3.48,3.48,0,0,1,52.28,22.56Zm-5.81,1.93h.84A2.84,2.84,0,0,0,49.09,24a1.65,1.65,0,0,0,.59-1.36,1.72,1.72,0,0,0-.49-1.34,2.31,2.31,0,0,0-1.55-.43H46.47Z" transform="translate(0)"/><path class="b" d="M59.72,20.75a2.61,2.61,0,0,0-2.25,1.09,5.09,5.09,0,0,0-.79,3q0,4.07,3,4.06a9.5,9.5,0,0,0,3.1-.64v2.16a8.72,8.72,0,0,1-3.34.62,5.07,5.07,0,0,1-4-1.61A6.81,6.81,0,0,1,54,24.86a7.5,7.5,0,0,1,.69-3.31,5,5,0,0,1,2-2.19,5.91,5.91,0,0,1,3-.76,8.2,8.2,0,0,1,3.56.86l-.83,2.09c-.46-.21-.91-.4-1.37-.56A4.11,4.11,0,0,0,59.72,20.75Z" transform="translate(0)"/><rect class="b" x="7.3" y="9.53" width="10.82" height="21.83"/><rect class="c" x="14.62" y="7.54" width="22.6" height="14.97"/><rect class="d" x="14.62" y="7.54" width="22.6" height="14.97"/><path class="c" d="M25.11,28.71l1.62,1.15H25.11V28.71Zm1.62,0-1.62,1.15h1.62V28.71Z" transform="translate(0)"/><rect class="d" x="8.8" y="13.46" width="4.25" height="1.45"/><rect class="d" x="8.8" y="11.08" width="4.25" height="1.45"/><circle class="d" cx="12.71" cy="27.48" r="1.28"/><rect class="b" x="23.6" y="22.75" width="4.64" height="8.61"/></svg>